<?xml version="1.0" encoding="UTF-8"?>
<svg xmlns="http://www.w3.org/2000/svg" viewBox="0 0 512 512">
  <!-- Background -->
  <rect width="512" height="512" fill="#4B0082"/>
  
  <!-- Rainbow arc -->
  <path d="M 156 356 A 180 180 0 0 1 356 356" fill="none" stroke="#FF0000" stroke-width="30"/>
  <path d="M 176 356 A 160 160 0 0 1 336 356" fill="none" stroke="#FF7F00" stroke-width="30"/>
  <path d="M 196 356 A 140 140 0 0 1 316 356" fill="none" stroke="#FFFF00" stroke-width="30"/>
  <path d="M 216 356 A 120 120 0 0 1 296 356" fill="none" stroke="#00FF00" stroke-width="30"/>
  <path d="M 236 356 A 100 100 0 0 1 276 356" fill="none" stroke="#0000FF" stroke-width="30"/>
  
  <!-- Sound waves -->
  <path d="M 156 156 A 50 50 0 0 1 356 156" fill="none" stroke="#FFFFFF" stroke-width="20" opacity="0.3"/>
  <path d="M 186 156 A 30 30 0 0 1 326 156" fill="none" stroke="#FFFFFF" stroke-width="20" opacity="0.5"/>
  <path d="M 216 156 A 10 10 0 0 1 296 156" fill="none" stroke="#FFFFFF" stroke-width="20" opacity="0.7"/>
</svg>